<?xml version="1.0" standalone="no"?>
<!DOCTYPE svg PUBLIC "-//W3C//DTD SVG 1.1//EN" "http://www.w3.org/Graphics/SVG/1.1/DTD/svg11.dtd" >
<svg xmlns="http://www.w3.org/2000/svg">
<metadata>Generated by IcoMoon</metadata>
<defs>
<font id="icomoon" horiz-adv-x="1024">
<font-face units-per-em="1024" ascent="960" descent="-64" />
<missing-glyph horiz-adv-x="1024" />
<glyph unicode="&#x20;" horiz-adv-x="512" d="" />
<glyph unicode="&#xe900;" glyph-name="heavy" d="M176.222 447.832c-11.192-2.101-20.742-3.228-25.536-14.168-2.924-6.672-7.9-8.696-13.788-2.396-6.977 7.467-12.471 4.071-17.412-2.56-0.943-1.266-1.627-2.732-2.617-3.953-2.879-3.555-4.934-9.183-10.775-7.438-4.675 1.397-5.119 6.533-6.224 10.736-0.668 2.54 0.739 5.571-2.245 8.135-2.417-1.716-4.803-3.662-7.415-5.226-6.607-3.961-10.737-1.786-11.522 5.628-0.55 5.198 0.367 10.674-7.577 10.441-1.072-0.033-3.347 2.507-3.137 2.957 4.014 8.634-3.158 18.653 1.173 25.903 14.524 24.31 24.995 50.913 42.9 73.347 23.846 29.873 51.624 55.353 81.761 78.677 35.976 27.843 75.995 48.152 117.701 65.498 5.989 2.491 10.092 5.859 11.837 12.060 0.204 0.769 0.554 1.491 1.031 2.128 19.114 24.211 20.722 53.568 24.617 82.37 2.363 18.47 7.678 36.44 15.743 53.223 6.853 14.046 10.163 15.007 24.943 10.715 25.307-7.349 49.261-17.154 69.097-35.154 4.588-4.162 9.687-4.221 15.491-2.754 41.263 10.421 81.523 7.664 120.459-10.004 6.312-2.866 11.203-2.128 17.531 1.39 26.251 14.586 52.707 29.252 83.743 30.892 17.338 0.916 21.004-1.291 24.060-18.681 4.882-27.782 4.211-55.97 1.286-83.877-2.49-23.797-3.31-23.444 18.674-33.782 60.068-28.248 116.154-62.858 163.885-109.287 35.414-34.449 68.334-71.358 93.594-114.304 7.553-12.841 12.169-27.087 21-39.571 3.67-5.186 11.579-17.83-2.773-24.461-3.912-1.806-1.81-5.464-1.221-8.454 2.462-12.485 1.942-12.943-10.85-9.478-1.491 0.401-2.949 0.909-4.338 1.343-2.507-3.047-0.008-5.521 0.156-8.098 0.426-6.824-3.060-8.716-8.835-6.431-3.936 1.843-7.737 3.953-11.383 6.316-12.939 7.332-19.296 6.070-27.89-5.55-6.84-9.253-12.231-9.232-15.159 1.835-3.424 12.943-12.231 15.462-23.040 18.076-9.765 2.359-9.822-1.069-7.959-8.741 5.313-21.869 13.246-43.323 14.877-65.806 1.442-19.898 10.99-37.917 11.33-57.823 0.115-6.463 6.25-7.459 9.593-11.035 12.952-13.84 25.846-15.667 40.526-2.167 3.887 3.572 10.207 7.696 16.142 3.052 5.165-4.039 4.137-10.846 2.093-15.495-12.141-27.644-5.403-57.623-10.834-85.516-11.080-56.906-45.474-95.924-102.433-113.377-24.756-7.586-49.144-9.843-74.49-3.199-19.759 4.862-36.954 16.998-48.157 33.989-4.321 6.398-8.573 9.421-16.552 7.369-34.685-8.913-69.079-5.1-103.113 3.731-14.459 3.985-29.671 4.411-44.331 1.241-49.848-10.813-100.364-13.742-150.594-4.104-22.172 4.035-43.882 10.277-64.809 18.637-10.281 4.133-21.623 4.833-32.334 1.995-27.081-6.095-54.573-9.073-82.37-5.444-7.037 0.918-12.733 0.524-17.63-6.128-14.697-19.96-35.847-29.27-59.537-33.194-75.951-12.575-145.393 40.628-167.425 99.234-0.525 1.065-0.94 2.179-1.241 3.33-3.571 25.321-11.183 49.906-22.544 72.815-3.901 7.684 0.94 11.948 8.9 12.3 3.157 0.201 6.326-0.106 9.384-0.922 9.251-2.72 14.944 1.298 21.645 7.676 11.352 10.801 17.382 22.176 16.097 38.334-0.877 11.026 6.226 14.61 16.435 10.306 1.525-0.442 2.923-1.241 4.082-2.327 12.807-16.429 30.778-12.042 47.716-12.157 5.432-0.037 8.519 2.4 11.481 6.701 8.297 11.551 13.263 25.154 14.357 39.334 2.879 35.885 10.734 71.193 23.34 104.915 0.583 2.118 1.054 4.264 1.41 6.435z" />
<glyph unicode="&#xe901;" glyph-name="light" d="M701.878 694.503c-0.754-16.441 0.008-33.046-2.564-49.502-0.84-5.363-1.212-10.632 3.817-15.208 35.615-32.382 51.909-74.482 59.838-120.648 7.221-42.033 4.821-83.939-9.097-123.859-16.613-47.653-41.964-90.259-87.134-117.285-5.206-3.117-6.685-6.332-6.111-12.337 0.963-12.202 0.41-24.474-1.647-36.54-3.85-25.285 11.379-42.639 27.89-58.139 28.623-27.095 65.11-44.405 104.202-49.426 36.061-4.94 68.866 4.366 98.578 25.006 8.802 6.115 19.468 10.834 18.473 24.637-0.242 3.334 3.211 5.374 6.365 6.259 10.629 2.986 9.572 8.708 6.341 17.707-12.796 35.639-13.513 72.741-10.838 110.035 1.049 18.534 4.559 36.844 10.445 54.448 6.423 19.595 17.842 37.179 33.124 51.024 12.349 11.035 26.792 16.867 42.496 11.325 16.396-5.788 22.88-20.484 25.784-36.987 7.401-42.082-5.374-80.802-20.849-118.575-10.592-25.858-20.447-52.318-36.385-75.698-3.113-4.551-6.472-8.933-10.056-13.128-2.544-2.986-3.609-5.657-1.896-9.597 5.313-12.206 0.807-22.331-7.524-31.31-3.248-3.502-6.84-6.558-6.537-12.009 0.918-16.671-6.664-30.818-14.635-44.372-8.97-15.254-19.21-29.794-29.426-44.274-9.47-13.21-21.565-24.314-35.529-32.625-28.381-17.334-57.565-32.207-89.797-41.902-78.815-23.708-156.238-16.81-234.439 3.666-55.906 14.639-104.739 41.001-148.987 77.136-15.066 12.308-28.839 25.899-38.801 42.82-4.509 7.655-9.052 8.057-17.452 4.502-49.052-20.75-95.006 10.895-92.55 62.886 0.141 4.743 1.371 9.388 3.594 13.578 3.228 5.603 2.32 10.396 0.115 15.725-8.373 20.238-7.176 39.367 7.494 56.48 4.11 4.796 1.879 7.688-1.76 10.83-1.384 1.122-3.009 1.909-4.747 2.298-1.738 0.393-3.543 0.377-5.275-0.041-37.831-5.763-63.585 27.111-67.16 58.503-2.385 20.943-0.389 41.189 15.419 57.471 1.164 1.352 2.047 2.925 2.599 4.62 0.552 1.7 0.761 3.49 0.615 5.267 0.471 17.097 5.494 33.755 14.552 48.259 4.093 6.918 1.84 9.216-4.405 12.165-24.521 11.583-46.985 25.805-63.064 48.648-19.010 27.013-29.321 56.517-28.092 89.702 0.604 7.088-1.178 14.175-5.064 20.133-24.841 37.119-30.117 78.623-27.383 122.136 1.731 28.343 8.296 56.182 19.411 82.312 3.653 8.615 0.792 11.336-7.648 13.626-15.995 4.345-31.751 9.531-47.2 15.535-11.32 4.324-21.084 11.941-28.032 21.869s-10.762 21.71-10.948 33.826c0.071 27.802 37.648 63.786 72.818 44.587 25.047-13.672 47.036-31.933 71.905-45.847 7.516-4.205 12.028-3.858 18.752 1.195 24.586 18.48 48.599 37.775 76.385 51.72 18.571 9.321 38.391 14.285 57.955 20.492 46.964 14.9 95.117 11.927 143.177 10.805 15.655-0.365 30.282-6.326 44.605-11.459 40.632-14.56 79.688-32.997 113.59-60.081 32.010-25.575 59.691-55.72 76.476-93.582 13.873-31.297 27.431-63.199 26.214-98.801z" />
<glyph unicode="&#xe902;" glyph-name="normal" d="M376.638 59.142c-16.061 8.937-31.557 17.424-46.9 26.182-4.37 2.49-7.41 1.225-10.419-2.011-31.427-33.804-73.723-42.877-116.416-50.209-30.448-5.226-61.493-2.748-92.24-4.583-34.267-2.048-67.932-5.095-96.531-27.091-7.096-5.456-11.178-1.163-12.749 5.689-2.244 9.318-1.749 19.083 1.426 28.127 28.566 79.266 79.526 135.487 163.184 157.938 26.736 7.303 54.44 10.437 82.132 9.286 10.061-0.446 14.163 2.052 13.425 13.148-4.125 62.013 18.347 115.962 51.23 166.814 49.619 76.739 99.431 153.416 127.984 241.352 10.355 31.896 10.453 31.99-21.852 38.065-20.666 3.886-41.044 8.681-59.98 18.118-9.428 4.699-19.609 5.459-29.69 7.307-21.803 3.998-25.982 9.161-26.041 34.747-0.073 31.624 13.87 58.146 33.536 81.636 10.286 12.287 16.051 23.803 7.315 39.325-3.025 5.376-3.931 11.978-5.602 18.075-2.596 9.468 1.725 16.189 9.242 21.148 7.452 4.916 13.674 1.444 18.988-4.005 3.383-4.082 7.137-7.842 11.214-11.23-2.834 20.579 4.087 37.523 16.202 51.975 25.307 30.184 67.315 29.669 92.956-0.437 6.799-7.779 11.891-16.897 14.946-26.766 1.516-5.071 2.445-10.294 8.425-11.763 6.136-1.507 7.95 4.022 10.85 7.47 21.574 25.673 50.033 34.468 78.389 24.126 28.148-10.267 54.153-45.599 54.182-73.607 0.029-26.731-21.836-55.973-49.377-64.929-7.492-2.436-12.091-6.135-11.424-14.044 1.876-22.212-7.008-41.907-14.291-61.879-18.031-49.427-35.242-99.077-45.924-150.729-1.118-5.415-1.999-10.879-2.871-16.339-4.010-25.129-4.088-25.399 19.079-33.599 7.016-2.486 13.312-11.436 19.493-8.479 4.878 2.339 5.784 12.341 9.175 18.543 6.832 12.509 21.25 15.835 41.214 10.035 14.037-4.080 17.396-9.097 16.847-25.534-0.422-12.644-0.762-25.301-1.593-37.921-0.365-5.571 1.401-8.929 6.562-11.121 5.845-2.417 11.518-5.222 16.982-8.401 13.201-7.868 25.158-11.813 36.512 3.76 5.452 7.475 13.562 5.513 21.336 0.905 10.015-5.935 18.579-13.722 14.832-25.453-5.079-15.897 0.205-26.104 11.579-36.25 11.764-10.678 21.352-23.532 28.242-37.847 3.863-7.827 8.585-11.366 17.875-7.676 12.104 4.813 21.778-1.122 29.11-10.207 7.504-9.29 10.682-20.582 2.302-30.515-15.712-18.625-15.163-38.572-8.778-60.26 4.276-14.52 12.968-22.843 27.951-22.766 32.801 0.164 60.305-14.782 87.224-30.786 30.568-18.17 58.954-39.916 90.919-55.853 3.396-1.692 7.696-3.785 7.131-8.536-0.381-2.572-1.491-4.981-3.203-6.943-1.708-1.958-3.949-3.387-6.447-4.112-17.519-6.25-35.815-10.043-54.374-11.268-12.059-1.036-24.121-2.019-38.154-3.191 16.196-12.173 31.801-22.159 44.433-35.68 6.136-6.156 11.825-12.743 17.031-19.706 6.115-8.753 3.105-14.995-7.41-14.701-30.204 0.852-59.879-4.375-89.809-6.578-33.092-2.433-61.829 10.457-89.42 26.87-3.899 2.318-7.131 6.226-13.267 6.14 3.359-17.195 11.682-32.002 18.416-47.333 9.191-20.926 5.386-26.239-18.039-25.207-47.903 2.171-95.011 13.046-139.014 32.096-14.275 5.857-29.098 10.277-44.245 13.197-3.6 0.999-7.422 0.868-10.945-0.381-3.523-1.245-6.574-3.547-8.745-6.59-15.618-18.854-37.29-25.78-60.817-28.062-24.437-2.372-48.964-2.4-73.482-2.466-32.797-0.090-64.679-4.186-93.586-21.357-6.999-4.153-11.864-2.2-15.093 5.165-3.388 7.148-4.535 15.159-3.29 22.97 4.517 27.816 18.982 49.926 38.054 69.644 1.309 1.356 2.524 2.802 4.093 4.547z" />
<glyph unicode="&#xe903;" glyph-name="medium" d="M389.342 746.815c-13.126 5.108-25.207 12.57-35.651 22.020-8.371 7.802-17.534 15.589-12.697 29.269 1.338 3.783-1.81 4.6-4.006 6.143-26.818 18.838-26.461 53.653 0.495 72.88 9.207 6.188 19.695 10.214 30.678 11.776 5.593 1.004 11.37 1.408 10.082 9.725-0.042 0.98 0.12 1.959 0.474 2.874s0.895 1.747 1.586 2.443c8.833 8.385 16.56 20.344 27.126 24.023 27.348 9.522 51.646 27.639 81.931 29.112 16.155 0.786 32.215 3.573 48.476 2.779 13.304-0.649 23.613-5.649 28.5-19.078 3.51-9.644 7.668-19.052 11.162-28.701 4.801-13.253 8.483-26.513 17.261-38.503 10.449-14.279 9.2-33.16 13.193-50 1.352-4.96 2.204-10.043 2.544-15.173 0.975-30.797 21.275-45.836 46.195-57.090 8.651-3.907 17.83-2.426 26.874-1.627 19.706 1.828 39.576-0.216 58.495-6.017 19.894-6.112 34.124-19.687 46.051-35.701 26.051-34.962 63.062-55.451 99.951-75.761 13.558-7.464 27.099-14.458 38.777-24.699 6.017-4.956 10.441-11.572 12.726-19.023s2.327-15.411 0.119-22.887c-4.506-17.534-7.451-35.466-14.176-52.538-7.397-18.768-19.812-30.753-37.884-39.789-20.746-10.375-39.53-24.457-61.014-33.931-15.639-6.619-31.777-12.005-48.255-16.105-14.59-3.867-23.675-11.457-25.928-26.599-1.499-10.093-7.565-15.995-17.117-19.096-16.191-5.263-15.7-5.173-7.66-20.66 15.258-29.405 31.474-58.356 33.165-92.905 0.807-16.474 10.58-30.015 22.835-40.366 25.027-21.135 35.59-48.382 37.564-80.097 0.659-10.633-2.294-21.062-0.262-31.855 1.602-8.524 3.936-16.126 10.572-21.823 10.899-9.347 15.217-21.393 16.699-35.398 1.303-11.837 6.214-22.983 14.070-31.932 12.206-14.422 20.546-31.625 32.002-46.809 10.15-13.443-3.502-32.633-21.352-32.17-18.846 0.496-37.31-2.855-55.878-5.091-6.357-0.766-12.771 0.922-18.547 0.393-19.399-1.778-37.933 0.782-57.057 3.416-9.675 1.335-21.5-7.283-33.726-6.136-6.25 0.848-12.071 3.654-16.63 8.012-4.563 4.358-7.623 10.047-8.753 16.253-1.004 5.509 0.012 11.194 2.863 16.011s7.344 8.446 12.657 10.215c14.385 4.76 20.374 14.836 22.745 28.77 6.414 37.663 5.816 38.973-27.136 58.831-9.847 5.931-20.058 10.998-30.413 15.938-15.135 7.229-24.785 19.038-27.529 36.033-2.523 15.2-4.067 30.548-4.616 45.945-0.406 12.808-5.591 21.918-18.19 27.705-30.642 14.066-53.195 38.064-72.95 64.492-9.019 12.071-19.182 18.629-34.349 19.628-16.822 1.106-33.763 1.454-50.16 7.586-10.654 3.985-23.949-3.355-30.020-14.074-19.296-34.066-47.029-57.881-84.104-70.947-15.168-5.345-18.444-9.921-11.037-23.72 17.367-32.35 9.054-58.077-15.888-81.641-5.288-5.353-9.784-11.436-13.352-18.059-8.403-14.541-4.428-32.236 11.162-46.731 3.225-2.613 5.562-6.16 6.693-10.154s0.999-8.241-0.376-12.157c-3.742-13.283-9.632-25.133-22.442-32.043-5.551-3.097-10.408-7.295-14.27-12.341-16.009-20.263-37.868-23.175-60.032-16.749-16.434 4.764-32.683 3.035-48.845 4.198-22.397 1.61-44.798 2.916-67.043 5.997-16.403 2.269-24.483 17.125-17.872 31.535 4.049 8.827 12.375 8.815 20.003 10.301 31.165 6.070 69.71 44.511 75.949 75.502 1.257 5.403 0.933 11.055-0.933 16.282-2.748 7.406-4.73 15.213-8.379 22.147-11.273 21.414-12.072 42.57-2.207 64.881 5.114 11.563 5.562 24.42 3.797 37.171-0.825 4.28-0.825 8.679 0 12.96 8.665 33.133 19.632 65.147 45.442 89.678 5.426 5.153 10.173 11.035 15.12 16.679 1.455 1.659 4.070 3.4 2.328 5.972-0.831 1.135-2.035 1.942-3.4 2.281-1.366 0.336-2.806 0.184-4.071-0.43-2.978-1.057-5.86-2.413-8.879-3.322-12.616-3.793-25.393-6.693-38.319-1.778-6.83 2.601-13.26-0.803-19.927-0.266-18.665 1.503-35.246 9.118-50.618 18.747-15.485 9.703-18.424 21.484-11.141 38.752 2.321 5.005 3.537 10.453 3.566 15.974 0.029 5.517-1.13 10.977-3.399 16.011-6.049 14.152-11.114 28.725-16.555 43.135-4.58 12.325-4.709 25.862-0.365 38.273 5.053 15.802 10.405 31.584 14.021 47.734 2.286 10.21 1.738 21.071 2.278 31.65 0.6 11.75 5.533 21.14 16.805 24.914 20.688 6.926 35.28 21.919 50.748 35.938 11.373 10.308 25.41 15.828 39.409 21.269 30.663 11.916 59.837 25.963 85.187 47.822 18 15.521 41.543 18.469 64.435 20.917 10.154 1.086 20.27 3.099 30.601 2.984zM293.715 393.708c33.814 8.61 49.949 33.559 63.683 60.928 1.61 3.207 3.174 6.287 1.103 10.007-8.242 14.799-4.096 28.234 5.167 40.722 5.546 7.479 3.641 12.919-1.816 19.825-13.949 17.654-32.596 15.43-50.902 12.739-13.539-1.995-27.698-4.985-35.727-18.158-12.057-19.784-6.943-49.742 10.56-64.647 3.001-2.552 6.095-5.009 8.983-7.684 8.307-7.7 11.232-16.433 6.724-27.636-3.338-8.294-5.181-17.187-7.773-26.096v0z" />
<glyph unicode="&#xe904;" glyph-name="short" d="M67.589 385.708c23.755-0.106 22.861-0.156 21.603 23.4-1.758 32.903 2.634 65.397 10.14 97.456 12.457 53.207 35.282 101.244 70.766 143.102 8.301 9.791 6.692 22.601 7.469 34.062 3.788 55.815 12.492 110.555 30.422 163.753 8.736 25.919 17.226 51.649 34.295 73.733 7.869 10.181 14.402 13.611 28.61 9.211 60.727-18.804 111.369-53.638 158.74-94.394 7.868-6.77 13.423-15.525 19.993-23.414 7.258-8.71 14.655-13.073 27.505-7.583 36.155 15.444 73.863 25.044 113.77 23.203 33.882-1.563 62.767-15.15 87.609-37.239 26.104-23.212 45.314-50.877 53.285-85.868 4.608-20.231 29.802-36.49 50.475-37.186 41.501-1.398 82.493-5.973 122.847-17.291 37.581-10.539 73.761-23.376 106.287-45.255 13.206-8.883 15.774-17.506 8.892-31.3-15.151-30.375-30.47-60.771-50.627-88.173-26.153-35.561-56.93-66.707-95.064-89.526-12.071-7.225-18.194-16.163-19.321-30.065-2.904-35.807-16.413-68.559-29.114-101.761-24.728-64.659-73.040-109.769-123.388-153.424-9.232-8.004-10.928-19.849-17.412-29.221-2.99-4.325 3.916-5.587 6.828-7.66 21.512-15.331 36.25-36.479 47.448-59.576 7.999-16.507 1.962-30.568-13.136-39.563-17.474-10.559-38.351-13.971-58.278-9.523-49.852 10.297-94.523 30.839-130.527 67.838-4.526 4.649-9.56 4.53-15.27 3.658-52.015-7.959-102.978-5.304-152.984 12.935-13.629 4.973-28.089 7.823-41.132 14.602-4.293 2.228-7.292 0.68-10.568-2.241-49.885-44.503-109.413-52.818-172.832-45.142-8.348 1.012-16.671 5.132-24.213 9.261-12.478 6.832-16.67 19.943-13.042 34.976 6.19 25.641 26.178 39.666 45.533 54.030 14.042 10.42 30.034 17.486 46.274 23.785 6.69 2.593 9.252 4.518 2.712 10.94-29.502 28.971-55.503 60.666-73.334 98.378-1.017 2.101-2.489 3.949-4.309 5.415-1.82 1.462-3.942 2.503-6.214 3.043-41.571 13.726-78.505 38.74-106.673 72.253-18.769 21.889-14.885 38.101 11.773 49.324 14.172 5.968 29.013 7.381 44.161 7.045z" />
<glyph unicode="&#xe905;" glyph-name="tall" d="M821.531 470.229c-9.294 6.832-17.191 8.274-24.412 11.108-3.752 1.257-7.217 3.248-10.187 5.857-2.974 2.609-5.399 5.784-7.127 9.343-6.722 14.291-12.82 28.967-20.746 42.57-6.021 10.342-5.464 19.572-2.023 30.293 5.849 18.23 5.444 20.695-13.255 21.447-28.697 1.155-42.557 23.216-61.444 38.369-10.928 8.766-20.595 18.551-20.161 34.241 0.197 7.038-4.465 8.548-9.269 5.394-15.372-10.086-27.48-4.292-38.945 6.704-4.841 4.643-9.212 3.824-14.627 0.104-16.060-11.030-35.566-15.067-52.257-25.033-5.698-3.402-11.506 1.089-17.125 2.363-6.349 1.44-10.486 0.698-9.568-6.867 1.466-12.115-5.218-20.493-13.029-27.877-18.493-17.485-34.845-36.478-47.157-58.951-3.105-5.778-7.426-10.816-12.661-14.764-5.239-3.949-11.272-6.713-17.682-8.11-12.616-3.039-24.571-8.737-37.706-9.667-5.277-0.373-6.226-3.69-6.811-7.954-2.472-17.998-5.161-36.008-4.441-54.223 0.622-15.753-5.020-27.038-19.301-34.902-38.681-21.303-60.185-56.095-73.384-96.834-3.481-11.014-10.476-20.582-19.914-27.242-17.302-12.452-35.166-24.125-52.475-36.569-10.065-7.234-21.175-5.96-32.002-4.604-11.747 1.569-23.607 2.118-35.448 1.638-6.142-0.569-12.318 0.635-17.799 3.465-5.481 2.826-10.038 7.168-13.132 12.501-3.753 5.886-8.129 10.58-15.452 11.665-1.592 0.168-3.098 0.803-4.329 1.827-21.464 21.32-46.498 39.256-63.13 65.167-9.172 14.291-8.943 30.085-4.351 45.752 6.344 21.647 7.659 42.635-4.903 62.734-2.379 3.809-0.953 7.365 1.486 10.961 3.313 4.882 5.831 10.301 9.029 15.274 5.182 8.057 5.716 15.106-2.576 21.742-4.793 3.834-5.050 9.441-3.611 15.245 4.845 19.548 9.438 39.16 14.38 58.683 1.868 6.893 5.079 13.349 9.448 18.998 9.199 12.365 18.756 24.489 27.415 37.223 8.51 12.441 20.159 22.409 33.765 28.894 8.768 4.332 13.291 10.713 14.327 21.186 3.425 34.608 4.101 69.353 5.921 104.022 2.11 40.201 6.572 80.307 5.222 120.7-0.478 14.303 14.643 26.907 28.654 25.579 7.296-0.691 9.81-5.771 10.466-12.255 2.305-22.783 4.010-45.645 7.018-68.335 4.609-34.765 7.566-69.698 12.809-105.032 2.593 6.671 6.011 13.15 7.609 20.051 3.481 15.040 13.118 24.884 25.466 32.733 14.989 9.528 30.477 18.323 45.047 28.445 17.458 12.128 36.423 13.747 56.61 11.256 24.952-3.079 24.997-2.904 35.409 19.134 2.361 4.999 4.821 9.987 6.691 15.177 5.581 15.488 15.702 25.998 31.593 31.172 22.025 7.172 41.064 20.259 60.405 32.435 8.552 5.384 16.904 8.416 26.673 7.308 23.216-2.634 46.535-2.263 69.808-2.136 13.771 0.075 23.429-5.398 30.368-16.848 4.915-8.108 10.211-15.986 15.045-24.139 3.596-6.064 8.401-7.637 15.020-5.734 9.88 2.841 19.902 5.332 28.967 10.304 2.38 1.416 5.128 2.087 7.897 1.925 2.765-0.162 5.419-1.149 7.619-2.834 17.932-11.512 35.959-22.878 53.912-34.356 4.768-3.046 9.228-7.019 10.678-12.347 3.24-11.929 11.379-10.408 19.337-7.362 14.373 5.501 28.414 11.859 42.57 17.918 22.188 9.497 44.114 8.356 64.115-4.649 20.881-13.577 41.12-28.229 63.926-38.384 11.915-5.306 19.464-13.645 22.63-25.62 8.978-33.952 17.478-68.033 25.932-102.119 2.064-8.313-2.003-15.556-6.009-22.352-4.6-8.296-9.834-16.223-15.655-23.711-6.132-7.45-4.493-12.501 2.421-17.592 4.837-4.064 9.88-7.879 15.106-11.428 6.935-3.956 12.243-10.242 14.979-17.741 5.763-15.514 11.125-31.171 16.093-46.975 0.659-2.476 0.819-5.058 0.471-7.597s-1.196-4.983-2.494-7.191c-14.127-27.739-27.705-55.76-41.677-83.584-1.97-3.92 0.385-5.911 2.257-8.303 9.486-12.132 18.301-24.904 28.795-36.094 8.028-8.565 10.424-17.67 7.639-28.152-5.067-19.071-10.895-37.945-16.466-56.881-1.286-4.375-4.792-7.143-7.84-10.236-11.907-12.083-24.744-23.331-33.8-37.97-3.351-5.407-8.77-7.815-14.705-9.142-3.416-1.004-6.939-1.589-10.498-1.737-22.807 0.664-37.659-7.762-39.743-32.612-0.631-7.496-6.943-11.776-13.5-13.591-21.148-5.845-39.498-20.554-62.747-19.722-4.325 0.152-6.517-2.503-6.332-6.799 0.373-8.798-3.985-15.938-8.016-23.171-10.375-18.625-24.113-30.913-47.604-27.062-11.117 1.823-21.897 2.302-23.835-14.16-0.61-5.194-7.34-9.949-11.813-14.356-10.682-10.523-20.050-25.137-32.977-29.929-15.938-5.911-16.269-17.408-20.218-28.844-1.028-2.978-1.671-6.451-3.641-8.688-14.16-16.114-3.379-30.794 2.621-45.482 2.712-6.636 12.411-2.961 16.093-8.491 4.747-7.131 9.72-3.453 16.069-2.888 26.841 2.392 55.202 11.289 78.279-11.801 4.809-4.809 7.795-3.777 10.65 1.925 7.463 14.901 38.912 17.727 50.188 2.445 6.353-8.61 3.686-20.074 1.823-29.905-2.949-15.573-21.443-26.763-36.647-22.798-7.68 2.003-12.464-0.68-19.169-4.35-17.715-10.105-38.638-13.005-58.434-8.098-11.424 2.884-22.315 7.909-33.378 12.141-3.277 1.253-7.107 2.355-8.614 5.861-3.662 8.491-7.221 9.781-17.539 7.008-10.834-2.912-22.852 5.566-30.417 14.504-4.53 5.353-8.741 7.184-14.942 9.171-12.149 3.887-25.788 7.754-25.252 25.113 0.131 4.162-1.966 5.956-6.025 4.022-5.612-2.679-11.080-0.999-16.081 1.118-17.002 7.467-33.255 16.531-48.538 27.079-4.547 3.301-7.627 8.241-8.593 13.775-1.094 6.226-2.585 12.374-4.469 18.407-5.607 14.975-3.588 28.32 6.128 41.054 2.871 4.276 4.911 9.052 6.017 14.078 4.571 16.773 12.136 30.691 30.11 36.487 8.868 2.859 11.366 9.478 10.355 18.686-0.758 9.425-0.93 18.891-0.508 28.336 0.004 2.765 0.819 5.472 2.339 7.782 10.056 13.66 20.353 27.148 30.7 40.595 1.819 2.621 4.383 4.633 7.361 5.784 2.974 1.151 6.226 1.38 9.335 0.668 3.142-0.377 6.308-0.475 9.466-0.291 18.252-0.045 18.252-0.033 20.308 17.601 0.147 2.363 0.418 4.719 0.815 7.053 3.49 15.409 45.507 45.199 61.276 43.528 18.579-1.974 16.663-0.52 25.76 15.061 13.496 23.118 35.328 39.539 54.956 57.475 1.946 1.778 6.029 1.606 9.13 1.655 1.085-0.111 2.179 0 3.224 0.324 1.040 0.328 2.007 0.856 2.839 1.565 0.831 0.705 1.511 1.573 1.999 2.548s0.774 2.040 0.844 3.125c3.969 23.286 15.004 41.374 40.907 50.586z" />
<glyph unicode="&#xe906;" glyph-name="back" d="M869.028 500.298h-587.229l256.551 256.551c20.505 20.503 20.505 54.15 0 74.652-4.862 4.873-10.641 8.74-16.998 11.378-6.361 2.638-13.181 3.996-20.062 3.996-6.885 0-13.705-1.358-20.066-3.996-6.357-2.638-12.136-6.505-16.998-11.378l-346.45-346.448c-4.873-4.866-8.74-10.641-11.378-17.002-2.638-6.357-3.996-13.177-3.996-20.062s1.358-13.701 3.996-20.062c2.638-6.361 6.505-12.136 11.378-17.002l346.45-346.448c4.866-4.866 10.646-8.729 17.002-11.362 6.361-2.634 13.177-3.99 20.062-3.99 6.881 0 13.697 1.356 20.058 3.99 6.357 2.634 12.136 6.496 17.002 11.362s8.729 10.646 11.362 17.007c2.634 6.357 3.99 13.173 3.99 20.058 0 6.881-1.356 13.697-3.99 20.058-2.634 6.357-6.496 12.136-11.362 17.002l-256.551 256.553h587.229c28.914 0 52.572 23.658 52.572 52.572s-23.658 52.572-52.572 52.572z" />
<glyph unicode="&#xe907;" glyph-name="filter" d="M464.245 653.361c-16.708-48.019-62.373-82.481-116.085-82.481s-99.375 34.462-116.085 82.481c-2.21-0.369-4.48-0.561-6.795-0.561h-81.92c-22.621 0-40.96 18.339-40.96 40.96s18.339 40.96 40.96 40.96h81.92c2.315 0 4.585-0.192 6.795-0.561 16.71 48.019 62.373 82.481 116.085 82.481s99.377-34.462 116.085-82.481c2.212 0.369 4.481 0.561 6.795 0.561h409.6c22.622 0 40.96-18.339 40.96-40.96s-18.338-40.96-40.96-40.96h-409.6c-2.314 0-4.583 0.192-6.795 0.561zM389.12 693.76c0-22.621-18.339-40.96-40.96-40.96s-40.96 18.339-40.96 40.96c0 22.621 18.339 40.96 40.96 40.96s40.96-18.339 40.96-40.96zM102.4 202.24c0 22.622 18.339 40.96 40.96 40.96h81.92c2.315 0 4.585-0.193 6.795-0.561 16.71 48.017 62.373 82.481 116.085 82.481s99.377-34.464 116.085-82.481c2.212 0.369 4.481 0.561 6.795 0.561h409.6c22.622 0 40.96-18.338 40.96-40.96s-18.338-40.96-40.96-40.96h-409.6c-2.314 0-4.583 0.193-6.795 0.561-16.708-48.017-62.373-82.481-116.085-82.481s-99.375 34.464-116.085 82.481c-2.21-0.369-4.48-0.561-6.795-0.561h-81.92c-22.621 0-40.96 18.338-40.96 40.96zM389.12 202.24c0-22.622-18.339-40.96-40.96-40.96s-40.96 18.338-40.96 40.96c0 22.622 18.339 40.96 40.96 40.96s40.96-18.338 40.96-40.96zM880.64 488.96c22.622 0 40.96-18.338 40.96-40.96s-18.338-40.96-40.96-40.96h-81.92c-2.314 0-4.583 0.193-6.795 0.561-16.708-48.017-62.374-82.481-116.085-82.481s-99.377 34.464-116.085 82.481c-2.212-0.369-4.481-0.561-6.795-0.561h-409.6c-22.621 0-40.96 18.338-40.96 40.96s18.339 40.96 40.96 40.96h409.6c2.314 0 4.583-0.193 6.795-0.561 16.708 48.017 62.374 82.481 116.085 82.481s99.377-34.464 116.085-82.481c2.212 0.369 4.481 0.561 6.795 0.561h81.92zM675.84 407.040c22.622 0 40.96 18.338 40.96 40.96s-18.338 40.96-40.96 40.96c-22.622 0-40.96-18.338-40.96-40.96s18.338-40.96 40.96-40.96z" />
<glyph unicode="&#xe908;" glyph-name="front" d="M154.972 500.298h587.227l-256.549 256.551c-20.505 20.503-20.505 54.149 0 74.652 4.862 4.873 10.641 8.74 16.998 11.378 6.361 2.638 13.181 3.996 20.062 3.996 6.885 0 13.705-1.358 20.066-3.996 6.357-2.638 12.136-6.505 16.998-11.378l346.448-346.448c4.874-4.866 8.741-10.641 11.379-17.002 2.638-6.357 3.998-13.177 3.998-20.062s-1.36-13.701-3.998-20.062c-2.638-6.361-6.504-12.136-11.379-17.002l-346.448-346.448c-4.866-4.866-10.646-8.729-17.002-11.362-6.361-2.634-13.177-3.99-20.062-3.99-6.881 0-13.697 1.356-20.058 3.99-6.357 2.634-12.136 6.496-17.002 11.362s-8.729 10.646-11.362 17.007c-2.634 6.357-3.99 13.173-3.99 20.058 0 6.881 1.356 13.697 3.99 20.058 2.634 6.357 6.496 12.136 11.362 17.002l256.549 256.553h-587.227c-28.915 0-52.572 23.658-52.572 52.572s23.657 52.572 52.572 52.572z" />
<glyph unicode="&#xe909;" glyph-name="generation" d="M921.6 769.828c0-48.475-39.297-87.771-87.773-87.771-48.472 0-87.769 39.297-87.769 87.771s39.297 87.772 87.769 87.772c48.476 0 87.773-39.297 87.773-87.772zM190.172 623.543c48.475 0 87.771 39.297 87.771 87.772s-39.297 87.772-87.771 87.772c-48.475 0-87.772-39.297-87.772-87.772s39.297-87.772 87.772-87.772zM482.742 623.543c48.476 0 87.773 39.297 87.773 87.772s-39.297 87.772-87.773 87.772c-48.476 0-87.771-39.297-87.771-87.772s39.295-87.772 87.771-87.772zM190.172 330.973c48.475 0 87.771 39.293 87.771 87.769s-39.297 87.773-87.771 87.773c-48.475 0-87.772-39.297-87.772-87.773s39.297-87.769 87.772-87.769zM570.515 418.742c0-48.476-39.297-87.769-87.773-87.769s-87.771 39.293-87.771 87.769c0 48.476 39.295 87.773 87.771 87.773s87.773-39.297 87.773-87.773zM775.315 330.973c48.472 0 87.769 39.293 87.769 87.769s-39.297 87.773-87.769 87.773c-48.476 0-87.773-39.297-87.773-87.773s39.297-87.769 87.773-87.769zM277.943 126.173c0-48.476-39.297-87.773-87.771-87.773s-87.772 39.297-87.772 87.773c0 48.472 39.297 87.769 87.772 87.769s87.771-39.297 87.771-87.769zM482.742 38.4c48.476 0 87.773 39.297 87.773 87.773 0 48.472-39.297 87.769-87.773 87.769s-87.771-39.297-87.771-87.769c0-48.476 39.295-87.773 87.771-87.773zM863.085 126.173c0-48.476-39.297-87.773-87.769-87.773-48.476 0-87.773 39.297-87.773 87.773 0 48.472 39.297 87.769 87.773 87.769 48.472 0 87.769-39.297 87.769-87.769z" />
<glyph unicode="&#xe90a;" glyph-name="search" d="M624.013 262.5c2.568-5.165 6.009-10.007 10.314-14.316l193.729-193.729c21.406-21.406 56.095-21.406 77.5 0 21.393 21.393 21.393 56.095 0 77.488l-193.741 193.741c-4.309 4.309-9.138 7.746-14.303 10.314 39.293 54.17 62.452 120.791 62.452 192.819 0 181.582-147.202 328.782-328.782 328.782-181.582 0-328.782-147.2-328.782-328.782 0-181.58 147.2-328.782 328.782-328.782 72.040 0 138.662 23.171 192.831 62.464zM650.367 528.818c0-121.057-98.128-219.185-219.185-219.185-121.060 0-219.188 98.128-219.188 219.185 0 121.059 98.128 219.188 219.188 219.188 121.057 0 219.185-98.129 219.185-219.188z" />
<glyph unicode="&#xe90b;" glyph-name="sort" d="M269.878 658.234l-11.31 11.701v-443.864l11.31 11.698c3.637 3.637 7.954 6.525 12.705 8.491s9.844 2.982 14.986 2.982c5.143 0 10.235-1.016 14.986-2.982s9.069-4.854 12.705-8.491c3.636-3.633 6.521-7.95 8.489-12.702s2.981-9.847 2.981-14.987c0-5.145-1.013-10.236-2.981-14.987s-4.853-9.069-8.489-12.706l-78.004-78.004c-3.709-3.551-8.083-6.332-12.87-8.188-4.669-2.064-9.717-3.129-14.821-3.129s-10.152 1.065-14.821 3.129c-4.788 1.855-9.162 4.637-12.871 8.188l-78.004 78.004c-7.344 7.344-11.47 17.306-11.47 27.693s4.126 20.345 11.47 27.689c7.344 7.344 17.305 11.473 27.691 11.473s20.347-4.129 27.691-11.473l11.311-11.698v443.864l-11.311-11.701c-7.344-7.344-17.305-11.47-27.691-11.47s-20.347 4.126-27.691 11.47c-7.344 7.344-11.47 17.305-11.47 27.691s4.126 20.347 11.47 27.691l78.004 78.004c3.709 3.551 8.083 6.334 12.871 8.19 4.669 2.064 9.717 3.129 14.821 3.129s10.152-1.066 14.821-3.129c4.787-1.856 9.161-4.64 12.87-8.19l78.004-78.004c3.636-3.636 6.521-7.954 8.489-12.705s2.981-9.844 2.981-14.986c0-5.143-1.013-10.235-2.981-14.986s-4.853-9.069-8.489-12.705c-3.636-3.636-7.954-6.521-12.705-8.489s-9.844-2.981-14.986-2.981c-5.143 0-10.235 1.013-14.986 2.981s-9.068 4.853-12.705 8.489zM533.541 251.040h349.057c10.342 0 20.263-4.108 27.578-11.424s11.424-17.236 11.424-27.578c0-10.342-4.108-20.263-11.424-27.578s-17.236-11.424-27.578-11.424h-349.057c-10.346 0-20.267 4.108-27.582 11.424-7.311 7.315-11.42 17.236-11.42 27.578s4.108 20.263 11.42 27.578c7.315 7.315 17.236 11.424 27.582 11.424zM533.541 496.8h267.141c10.342 0 20.263-4.108 27.578-11.424s11.424-17.236 11.424-27.578c0-10.342-4.108-20.263-11.424-27.578s-17.236-11.424-27.578-11.424h-267.141c-10.342 0-20.263 4.108-27.578 11.424-7.311 7.315-11.424 17.236-11.424 27.578s4.112 20.263 11.424 27.578c7.315 7.315 17.236 11.424 27.578 11.424zM533.541 742.56h185.221c10.342 0 20.263-4.109 27.578-11.423s11.424-17.235 11.424-27.579c0-10.344-4.108-20.264-11.424-27.578s-17.236-11.424-27.578-11.424h-185.221c-10.342 0-20.263 4.11-27.578 11.424-7.311 7.314-11.424 17.234-11.424 27.578s4.112 20.264 11.424 27.579c7.315 7.314 17.236 11.423 27.578 11.423z" />
<glyph unicode="&#xe90c;" glyph-name="bug" d="M684.192 958.997c0.745 1.063 2.212 1.322 3.277 0.577l72.708-50.912c1.065-0.745 1.323-2.21 0.578-3.274l-101.2-144.527c49.197-15.718 82.719-32.672 82.719-32.672s-81.932-140.927-220.889-140.927c-138.962 0-237.705 131.346-237.705 131.346s35.013 22.344 86.913 41.508l-111.002 132.285c-0.834 0.995-0.704 2.477 0.29 3.312l67.995 57.055c0.996 0.834 2.478 0.705 3.312-0.29l140.545-167.496c12.034 1.361 24.297 2.122 36.667 2.122 17.785 0 35.545-1.352 52.883-3.646l122.909 175.537zM711.684 580.59c37.085 26.484 93.196 95.61 93.196 95.61s143.331-113.582 143.331-354.418c0-240.833-247.796-385.782-247.796-385.782s-118.391 119.562-147.456 271.127c-29.065 151.564 42.992 319.861 42.992 319.861s78.647 27.118 115.732 53.603v0zM312.313 580.59c-37.082 26.484-93.195 95.61-93.195 95.61s-143.33-113.582-143.33-354.418c0-240.833 247.796-385.782 247.796-385.782s118.392 119.562 147.457 271.127c29.061 151.564-42.992 319.861-42.992 319.861s-78.651 27.118-115.735 53.603v0z" />
<glyph unicode="&#xe90d;" glyph-name="dark" d="M459.444 54.301c116.474 78.819 194.777 225.62 194.777 393.699 0 159.876-70.844 300.498-177.996 381.676 14.082 1.536 28.393 2.324 42.885 2.324 216.007 0 391.111-175.106 391.111-391.111 0-216.007-175.104-391.111-391.111-391.111-20.287 0-40.21 1.544-59.666 4.522zM512-64c282.767 0 512 229.229 512 512s-229.233 512-512 512c-282.771 0-512-229.23-512-512s229.229-512 512-512z" />
<glyph unicode="&#xe90e;" glyph-name="dragon" d="M561.676 450.236c6.939 4.235 12.829 13.103 17.576 22.958 62.489-25.539 106.406-85.893 106.406-156.275 0-93.499-77.5-169.296-173.101-169.296-39.244 0-75.44 12.771-104.473 34.3-9.524 4.51-17.36 8.839-23.772 12.386-9.946 5.497-16.468 9.105-20.552 8.54-11.938-1.647-8.472-12.632-5.322-22.61 2.138-6.775 4.132-13.091 1.046-15.696-3.228-2.728-13.684 7.242-25.902 18.891-16.632 15.86-36.528 34.828-45.91 29.131-7.418-4.506-0.216-16.728 8.6-31.687l0.654-1.11c3.724-6.324 8.040-12.767 11.978-18.641 8.006-11.944 14.454-21.565 11.228-23.196-3.9-1.966-31.072 16.372-53.97 41.837-8.838 9.826-17.398 20.476-25.354 30.376v0c-17.414 21.668-31.922 39.719-40.066 37.581-9.797-2.572-2.386-22.782 8.504-42.226 5.092-9.093 11.082-18.354 16.268-26.374v0c8.066-12.468 14.188-21.93 11.968-23.093-2.996-1.569-29.358 24.138-47.263 56.533-10.635 19.243-19.565 40.505-26.795 57.721-7.84 18.67-13.68 32.575-17.526 33.976-13.361 4.862-13.361-22.381-8.002-61.698 0.699-5.132 1.74-10.51 3.022-15.991 51.968-168.145 211.61-290.574 400.487-290.574 231.035 0 418.324 183.177 418.324 409.137 0 215.063-169.66 391.369-385.217 407.875 0.27 10.131 5.558 30.222 5.558 30.222s38.056 92.072 40.067 111.746c0.131 1.306 0.291 2.725 0.459 4.236 2.372 21.258 6.783 60.784-27.222 60.784-18.162 0-26.604-13.509-36.262-28.96v0c-3.707-5.931-7.598-12.149-12.28-17.998-33.739-42.129-90.464-94.739-122.63-122.768-67.989-59.242-134.693-107.93-173.597-136.326l-0.002-0.002c-17.694-12.914-29.636-21.632-33.332-25.234-27.852-27.152-127.717-207.283-127.717-207.283s-32.295-57.795-20.816-69.513c11.479-11.723 39.161-9.036 39.161-9.036s371.881 85.316 405.178 92.041c8.962 1.815 15.29 2.859 20.148 3.662 13.189 2.175 15.557 2.568 30.45 11.653zM298.743 559.872c-19.962-18.975-53.068-64.264-53.068-64.264s61.528-3.789 95.414 28.422c33.888 32.21 26.124 87.104 26.124 87.104s-48.51-32.288-68.47-51.262z" />
<glyph unicode="&#xe90f;" glyph-name="electric" d="M304.142 958.829c-0.199 0.573 0.229 1.171 0.835 1.171h360.865c0.385 0 0.729-0.252 0.844-0.622l165.749-535.512c0.176-0.569-0.25-1.143-0.844-1.143h-240.243c-0.291 0-0.504-0.279-0.422-0.561l137.785-485.032c0.266-0.942-0.967-1.556-1.552-0.774l-535.454 712.068c-0.437 0.582-0.023 1.413 0.705 1.413h218.037c0.303 0 0.516 0.299 0.418 0.586l-106.724 308.405z" />
<glyph unicode="&#xe910;" glyph-name="fairy" d="M205.459 148.017l164.25 47.624 141.866-259.387c0.184-0.34 0.668-0.34 0.852 0l141.865 259.387 164.25-47.624c0.369-0.106 0.713 0.238 0.602 0.602l-47.636 161.001 252.24 137.953c0.34 0.184 0.34 0.668 0 0.852l-254.317 139.092 49.713 168.026c0.111 0.368-0.233 0.71-0.602 0.604l-168.104-48.744-138.011 252.344c-0.184 0.337-0.668 0.337-0.852 0l-138.011-252.344-168.104 48.744c-0.368 0.106-0.71-0.236-0.6-0.604l49.712-168.026-254.318-139.092c-0.337-0.184-0.337-0.668 0-0.852l252.238-137.953-47.632-161.001c-0.11-0.365 0.232-0.709 0.6-0.602zM332.915 446.231l116.363-63.64 63.64-116.359c0.184-0.34 0.668-0.34 0.852 0l63.64 116.359 116.359 63.64c0.336 0.184 0.336 0.668 0 0.852l-116.359 63.64-63.64 116.361c-0.184 0.338-0.668 0.338-0.852 0l-63.64-116.361-116.363-63.64c-0.336-0.184-0.336-0.668 0-0.852z" />
<glyph unicode="&#xe911;" glyph-name="fighting" d="M176.6 874.869c12.392 48.928 56.719 85.131 109.499 85.131 39.59 0 74.424-20.369 94.592-51.2h33.026c20.517 21.057 49.185 34.133 80.904 34.133 46.51 0 86.454-28.11 103.768-68.267h27.652c17.326 10.816 37.798 17.066 59.728 17.066 46.51 0 86.45-28.11 103.768-68.266h75.19c0.643 0 1.245-0.173 1.761-0.475 3.432 0.314 6.914 0.475 10.424 0.475 62.382 0 112.951-50.57 112.951-112.951v-338.689l0.004-0.627-0.004-0.627v-4.878c0-2.068-0.057-4.125-0.168-6.173-6.795-234.955-218.067-423.522-477.696-423.522-263.92 0-477.867 194.847-477.867 435.2 0 116.019 49.85 221.434 131.107 299.45-0.203-113.106 1.708-230.039 10.514-228.032 23.581 5.378 5.156 355.703 0.846 432.251z" />
<glyph unicode="&#xe912;" glyph-name="fire" d="M704.856 169.21c12.653 46.264-11.903 141.369-11.903 141.369s-17.814-77.476-45.646-106.115c-23.745-24.424-52.834-41.366-94.552-45.818 34.107 16.568 57.565 51.114 57.565 91.042 0 56.054-46.223 101.495-103.244 101.495s-103.245-45.441-103.245-101.495c0-15.307 3.45-29.823 9.623-42.84-35.663 28.41-41.27 73.966-41.27 73.966s-39.824-165.343 69.91-243.118c109.728-77.775 324.686-10.924 324.686-10.924s-307.618-216.445-535.566 19.128c-196.358 202.932-51.25 470.094-51.25 470.094s-6.267-24.785-6.267-53.555c0-28.77 15.598-50.659 15.598-50.659s46.53 98.079 82.742 137.966c34.272 37.747 77.234 68.363 114.342 94.807 28.566 20.356 53.662 38.24 68.649 55.002 82.555 92.309 31.937 260.446 31.937 260.446s93.057-82.040 119.038-187.996c9.904-40.388 3.531-86.342-2.163-127.436-9.249-66.712-16.724-120.62 50.086-117.122 107.966 5.657 14.148 172.108 14.148 172.108s244.904-128.72 226.607-353.843c-18.297-225.124-267.69-276.304-267.69-276.304s65.212 53.543 77.865 99.803z" />
<glyph unicode="&#xe913;" glyph-name="flying" d="M357.425 4.268c150.008 0 278.43 83.37 331.449 201.552 0.647 1.442-212.857-55.484-206.049-35.361 3.039 8.987 133.919 56.799 229.274 112.566 54.804 32.055 80.044 99.91 80.044 99.91s-92.336-44.831-139.014-56.201c-94.061-22.921-176.865-20.455-176.865-18.067 0 5.165 137.49 31.289 328.585 147.739 89.887 54.776 114.303 149.123 114.303 149.123s-98.824-58.864-158.564-78.3c-141.672-46.084-270.954-59.974-270.954-53.735 0 13.349 113.775 44.638 234.402 103.087 62.722 30.39 117.039 70.094 179.982 114.248 102.998 72.242 119.984 200.906 119.984 200.906s-101.585-65.52-151.159-87.279c-204.558-89.784-385.184-136.879-515.416-147.075-196.592-15.392-357.425-152.557-357.425-330.647 0-178.094 160.024-322.466 357.425-322.466z" />
<glyph unicode="&#xe914;" glyph-name="ghost" d="M737.903-60.453c-92.365-4.731-198.111-4.731-234.045 0-280.317 36.876-503.857 241.828-503.857 518.853s229.23 501.6 512 501.6c282.771 0 512-224.574 512-501.6 0-128.844-49.586-246.338-131.080-335.176-22.131-24.121 8.233-41.042 39.084-58.233 30.257-16.863 60.981-33.985 43.123-58.417-19.673-26.919-126.341-61.354-237.224-67.027zM440.001 521.101c0-43.287-35.819-78.377-80.001-78.377s-80 35.090-80 78.377c0 29.028 16.11 54.371 40.048 67.917 1.378-37.742 32.41-67.917 70.49-67.917h49.462zM687.952 589.018c-1.376-37.742-32.412-67.917-70.488-67.917h-49.463c0-43.287 35.82-78.377 79.999-78.377 44.184 0 79.999 35.090 79.999 78.377 0 29.028-16.11 54.371-40.047 67.917z" />
<glyph unicode="&#xe915;" glyph-name="grass" d="M190.432 66.724c-3.649 3.432-7.258 6.935-10.825 10.498-188.297 188.297-188.297 493.588 0 681.884 188.296 188.298 788.281 200.894 788.281 200.894s81.9-694.481-106.398-882.778c-167.231-167.231-426.746-185.938-614.622-56.123l151.386 185.774 242.004 52.249-197.546 19.751 125.542 127.824 142.905 31.306-113 33.468 113 203.851-160.731-180.291-62.071 87.59 21.848-144.619-111.951-126.206-51.896 159.674v-212.349l-155.927-192.397z" />
<glyph unicode="&#xe916;" glyph-name="ground" d="M225.529 79.688c-0.278 0-0.472 0.274-0.38 0.537l261.431 738.708c0.057 0.161 0.209 0.268 0.381 0.268h279.085c0.168 0 0.324-0.108 0.377-0.27l257.556-738.706c0.090-0.262-0.106-0.537-0.381-0.537h-798.070zM0.403 76.8c-0.281 0-0.475 0.279-0.377 0.541l194.68 519.746c0.059 0.158 0.209 0.262 0.377 0.262h169.155c0.28 0 0.474-0.278 0.378-0.54l-188.25-519.747c-0.057-0.156-0.209-0.262-0.378-0.262h-175.584z" />
<glyph unicode="&#xe917;" glyph-name="ice" d="M496.755 769.521l-254.328 125.959 7.692-281.522 240.131-118.927 6.504 274.491zM779.108 610.53l-3.232 283.792-247.345-134.661 3.052-267.952 247.525 118.821zM778.965 306.979l245.035 140.157-245.162 128.941-245.051-128.72 245.178-140.378zM490.213 447.136l-245.034-140.157-245.18 140.378 245.052 128.72 245.161-128.941zM782.799 3.080l-254.329 125.96 6.504 274.493 240.132-118.931 7.692-281.522zM247.977 284.312l3.233-283.791 247.347 134.66-3.052 267.952-247.528-118.821z" />
<glyph unicode="&#xe918;" glyph-name="normal1" d="M1024 448c0 282.77-229.229 512-512 512s-512-229.23-512-512c0-282.771 229.23-512 512-512s512 229.229 512 512zM804.569 448c0-161.583-130.986-292.569-292.569-292.569s-292.57 130.986-292.57 292.569c0 161.583 130.988 292.57 292.57 292.57s292.569-130.988 292.569-292.57z" />
<glyph unicode="&#xe919;" glyph-name="poison" d="M855.642 173.101c103.408 82.682 168.358 202.146 168.358 335 0 249.577-229.229 451.899-512 451.899s-512-202.322-512-451.899c0-128.057 60.347-243.671 157.311-325.902-5.877-20.292-9.1-42.361-9.1-65.438 0-99.832 60.323-180.761 134.738-180.761 48.352 0 90.756 34.169 114.526 85.492 23.771-51.323 66.173-85.492 114.526-85.492 44.077 0 83.206 28.393 107.79 72.286 24.58-43.893 63.713-72.286 107.786-72.286 74.416 0 134.738 80.929 134.738 180.761 0 19.673-2.343 38.613-6.672 56.34zM808.423 499.139c0-126.71-135.733-229.425-303.161-229.425s-303.156 102.715-303.156 229.425c0 126.707 135.728 229.426 303.156 229.426s303.161-102.718 303.161-229.426z" />
<glyph unicode="&#xe91a;" glyph-name="psychic" d="M912.466 109.539c0 0-129.135-103.567-386.105-60.711-194.963 32.518-298.946 247.435-298.946 362.955 0 273.889 202.715 336.218 339.763 336.218s226.451-133.614 226.451-237.066c0-103.453-73.171-193.937-187.036-193.937s-147.587 79.938-147.587 153.432c0 73.495 59.462 99.386 113.689 99.386s72.794-46.298 72.794-86.086c0-39.793-30.872-54.043-56.623-54.043s-28.299 12.993-38.154 26.644c-9.855 13.652 12.571 65.331-24.351 65.331-36.925 0-43.807-59.408-43.807-59.408s13.459-114.68 124.039-112.701c110.584 1.978 163.041 87.47 147.796 172.11s-97.386 174.579-241.553 156.405c-144.162-18.174-203.022-163.839-177.077-319.504s212.43-245.858 359.059-213.41c146.625 32.449 292.663 138.6 292.663 407.736s-233.091 430.913-511.029 404.251c-277.942-26.661-450.474-269.655-439.431-561.615 11.044-291.963 288.081-450.974 522.346-459.17 234.263-8.196 377.876 127.414 377.876 127.414s32.297 28.799 19.632 51.29c-12.661 22.491-44.409-5.521-44.409-5.521z" />
<glyph unicode="&#xe91b;" glyph-name="rock" d="M790.639 469.565c-0.057 0.078-0.082 0.176-0.066 0.274l65.196 380.147c0.029 0.175 0.18 0.303 0.356 0.303h20.636c0.16 0 0.299-0.103 0.344-0.255l146.878-465.044c0.045-0.143-0.004-0.303-0.123-0.397l-108.294-84.55c-0.164-0.127-0.397-0.094-0.516 0.070l-124.412 169.452zM0 217.555c0-0.156 0.101-0.299 0.251-0.348l223.236-72.991c0.108-0.037 0.227-0.016 0.321 0.045l498.984 344.49c0.086 0.057 0.143 0.147 0.156 0.246l53.51 359.041c0.033 0.22-0.139 0.418-0.36 0.418h-441.977c-0.11 0-0.211-0.048-0.281-0.132l-333.755-402.626c-0.054-0.066-0.084-0.147-0.084-0.233v-227.91zM316.511 125.62l243.883-79.888c0.106-0.037 0.229-0.020 0.324 0.049l290.357 208.273c0.16 0.115 0.201 0.336 0.090 0.5l-108.847 161.976c-0.111 0.168-0.34 0.213-0.508 0.098l-425.299-291.009z" />
<glyph unicode="&#xe91c;" glyph-name="steel" d="M0.102 447.377l257.488-439.439c0.134-0.229 0.38-0.369 0.644-0.369h510.355c0.266 0 0.512 0.143 0.647 0.373l254.661 439.439c0.135 0.229 0.135 0.512 0 0.745l-254.661 439.931c-0.135 0.23-0.381 0.372-0.647 0.372h-510.355c-0.264 0-0.51-0.14-0.644-0.369l-257.488-439.93c-0.136-0.238-0.136-0.524 0-0.754zM749.236 448c0-130.978-106.181-237.154-237.154-237.154-130.977 0-237.156 106.177-237.156 237.154s106.178 237.154 237.156 237.154c130.974 0 237.154-106.176 237.154-237.154z" />
<glyph unicode="&#xe91d;" glyph-name="water" d="M844.186 266.94c0-182.776-148.722-330.94-332.186-330.94-183.462 0-332.187 148.165-332.187 330.94 0 177.758 314.218 665.963 331.45 692.604 0.397 0.608 1.081 0.608 1.475 0 17.232-26.641 331.448-514.846 331.448-692.604zM456.626 42.099c-168.568 36.88-139.723 223.609-139.723 223.609s46.030-112.718 157.733-149.234c111.702-36.512 246.69 17.039 246.69 17.039s-96.133-128.299-264.7-91.415z" />
</font>
</defs>
</svg>
